grf
version=1
nRows=21
nColumns=19
inDegrees=no
endheader
time	ground_force_1_vx	ground_force_1_vy	ground_force_1_vz	ground_force_1_px	ground_force_1_py	ground_force_1_pz	ground_moment_1_mx	ground_moment_1_my	ground_moment_1_mz	ground_force_2_vx	ground_force_2_vy	ground_force_2_vz	ground_force_2_px	ground_force_2_py	ground_force_2_pz	ground_moment_2_mx	ground_moment_2_my	ground_moment_2_mz
      7.03000000	      1.07714128	    390.60562134	    -42.37084961	    175.57300981	      0.00000000	  -1034.72790158	      0.00000000	   4541.99919787	      0.00000000	     -1.57073760	    490.13134766	     63.55268860	    197.29155825	      0.00000000	  -1419.48880940	      0.00000000	   1598.38784357	      0.00000000
      7.04000000	      0.22629642	    414.12316895	    -44.14701080	    175.59533977	      0.00000000	  -1027.12203519	      0.00000000	   4713.94565596	      0.00000000	     -1.45008802	    495.69995117	     65.96641541	    195.67791564	      0.00000000	  -1417.62339249	      0.00000000	   1380.73440355	      0.00000000
      7.05000000	     -0.41305447	    423.75228882	    -44.87817383	    171.26795005	      0.00000000	  -1026.43383699	      0.00000000	   4786.53364767	      0.00000000	      0.24328327	    513.20916748	     65.52285767	    194.57736987	      0.00000000	  -1415.20415003	      0.00000000	   1634.52706943	      0.00000000
      7.06000000	     -4.16684484	    448.24707031	    -44.32381439	    169.21737289	      0.00000000	  -1033.06052031	      0.00000000	   4551.02656420	      0.00000000	      2.97998548	    516.86505127	     67.89463043	    192.46692772	      0.00000000	  -1413.07761082	      0.00000000	   1306.48017466	      0.00000000
      7.07000000	     -9.79547596	    466.81185913	    -45.22148514	    166.40383945	      0.00000000	  -1037.03679216	      0.00000000	   4857.62137068	     -0.00000000	      5.31512022	    518.27691650	     63.86993790	    190.82386300	      0.00000000	  -1412.58118809	      0.00000000	   1434.67284520	      0.00000000
      7.08000000	    -10.42683887	    497.24505615	    -46.67959976	    166.29843122	      0.00000000	  -1033.61286854	      0.00000000	   4540.02092947	      0.00000000	      6.68202305	    516.67987061	     61.49721146	    191.14492507	      0.00000000	  -1411.97619513	      0.00000000	   1195.77457177	      0.00000000
      7.09000000	    -14.51437855	    516.27783203	    -49.49608231	    168.97574428	      0.00000000	  -1032.10472997	      0.00000000	   4083.04579469	      0.00000000	      3.05784345	    519.70343018	     61.98051453	    190.97479018	      0.00000000	  -1410.41418628	      0.00000000	   1192.97508570	      0.00000000
      7.10000000	    -17.63186073	    531.14416504	    -53.28190994	    171.54626858	      0.00000000	  -1032.26431449	      0.00000000	   3856.30983021	      0.00000000	     -2.41749239	    530.53436279	     61.09571838	    189.44274067	      0.00000000	  -1409.49078808	      0.00000000	   1395.60923310	      0.00000000
      7.11000000	    -20.99423409	    533.20996094	    -54.81263733	    173.47689573	      0.00000000	  -1030.10694506	      0.00000000	   3732.42029679	      0.00000000	     -1.41115904	    540.55426025	     59.12491226	    188.70644352	      0.00000000	  -1410.24855887	      0.00000000	   1335.27816028	      0.00000000
      7.12000000	    -23.58967590	    542.15167236	    -57.95254898	    176.23207901	      0.00000000	  -1029.75132959	      0.00000000	   3618.64231442	      0.00000000	      2.81737185	    537.66314697	     58.52081680	    186.39189020	      0.00000000	  -1407.94078072	      0.00000000	   1213.98815952	      0.00000000
      7.13000000	    -26.70905876	    562.64654541	    -59.72964478	    175.46033824	      0.00000000	  -1031.36640205	      0.00000000	   3769.07967530	      0.00000000	      8.29519081	    538.90631104	     58.19551086	    183.50713477	      0.00000000	  -1405.63667258	      0.00000000	   1359.28781955	      0.00000000
      7.14000000	    -27.71708107	    578.16845703	    -58.27948761	    175.53240513	      0.00000000	  -1030.97286332	      0.00000000	   3507.08281621	      0.00000000	      8.65989876	    544.44653320	     57.87348938	    178.75912069	      0.00000000	  -1401.98302058	      0.00000000	   1343.36565422	      0.00000000
      7.15000000	    -23.83304596	    578.97241211	    -59.77261734	    173.99985262	      0.00000000	  -1033.87818563	      0.00000000	   4008.00353121	      0.00000000	      9.66899109	    562.26458740	     55.74097824	    177.07666718	      0.00000000	  -1403.19745612	      0.00000000	   1661.35823820	      0.00000000
      7.16000000	    -18.36805725	    588.46838379	    -59.61335754	    168.75918289	      0.00000000	  -1035.66810566	      0.00000000	   4711.02259018	      0.00000000	     14.94292259	    554.60870361	     54.53087997	    176.52464501	      0.00000000	  -1402.61033505	      0.00000000	   1671.77336271	      0.00000000
      7.17000000	    -13.44823647	    593.42962646	    -55.29859924	    166.21697918	      0.00000000	  -1039.16632031	      0.00000000	   3887.76388719	      0.00000000	     22.39585876	    564.11785889	     53.84423828	    172.61048112	      0.00000000	  -1401.84193574	      0.00000000	   1868.73627097	      0.00000000
      7.18000000	    -10.16521072	    606.28265381	    -57.15486145	    163.44845643	      0.00000000	  -1038.04346758	      0.00000000	   4312.69537717	      0.00000000	     22.79604721	    569.67810059	     53.64142609	    170.93211316	      0.00000000	  -1403.52401183	      0.00000000	   1677.20022545	      0.00000000
      7.19000000	     -7.33058262	    610.46356201	    -57.55955124	    162.03188427	      0.00000000	  -1037.57917792	      0.00000000	   4643.94352184	      0.00000000	     19.57536697	    576.21252441	     54.04281616	    171.62776175	      0.00000000	  -1402.10024250	      0.00000000	   1939.72549295	      0.00000000
      7.20000000	    -11.02442360	    605.46856689	    -57.72021484	    165.13859193	      0.00000000	  -1036.50261588	      0.00000000	   4638.97952783	      0.00000000	     15.58827209	    583.22485352	     53.35967255	    171.31684687	      0.00000000	  -1399.63857906	      0.00000000	   1935.18677378	      0.00000000
      7.21000000	    -16.93895149	    619.04699707	    -59.37330627	    169.07142489	      0.00000000	  -1038.05279978	      0.00000000	   4285.80078166	      0.00000000	     13.21255302	    587.69738770	     54.48574066	    172.77385720	      0.00000000	  -1400.67680033	      0.00000000	   2086.19123590	      0.00000000
      7.22000000	    -21.51969910	    636.63037109	    -60.66607666	    171.20430635	      0.00000000	  -1037.10641891	      0.00000000	   4328.72334559	      0.00000000	     10.63418770	    598.38049316	     57.17910767	    173.15198489	      0.00000000	  -1401.15292885	      0.00000000	   2073.82196179	      0.00000000
      7.23000000	    -24.72261429	    650.07885742	    -61.03505707	    170.61551812	      0.00000000	  -1038.74957647	      0.00000000	   4592.48872845	      0.00000000	      6.28528309	    612.09698486	     58.90927124	    174.60457567	      0.00000000	  -1400.97033394	      0.00000000	   2181.09184240	      0.00000000
